<?xml version="1.0" encoding="UTF-8"?>
<svg id="Layer_2" data-name="Layer 2" xmlns="http://www.w3.org/2000/svg" viewBox="0 0 454.58 402.28">
  <defs>
    <style>
      .cls-1 {
        fill: #24528c;
      }
    </style>
  </defs>
  <g id="_图层_1" data-name="图层 1">
    <g>
      <path class="cls-1" d="M266.35,312.38h-4.73c-.6,0-1.11.21-1.53.62s-.62.93-.62,1.53v8.29c0,.58.21,1.08.62,1.5.42.42.92.62,1.53.62h4.73c.58,0,1.08-.21,1.5-.62.42-.42.62-.92.62-1.5v-8.29c0-.6-.21-1.11-.62-1.53-.42-.42-.92-.62-1.5-.62Z"/>
      <path class="cls-1" d="M227.29,312.84c-.54-.31-1.12-.46-1.74-.46h-5.52v12.56h5.52c.62,0,1.2-.15,1.74-.46.54-.31.96-.73,1.27-1.27.31-.54.46-1.12.46-1.74v-5.58c0-.64-.16-1.23-.46-1.77-.31-.54-.73-.96-1.27-1.27Z"/>
      <path class="cls-1" d="M227.29,0C101.76,0,0,86.65,0,202.61s101.76,199.67,227.29,199.67,227.29-83.7,227.29-199.67S352.82,0,227.29,0ZM208.84,61.89h37.22l.17.48,24.71,71.82,30.65,89.07,5.74,16.69h-52.3l-27.39-92.21-27.33,92.21h-52.87l5.74-16.69h0l29.96-87.11h0s25.54-74.26,25.54-74.26h.16ZM305.11,272.27v4.6l-3.46.29v24.1h-14.02v-4.6h3.63v-18.99l-3.63.06v-4.6l3.63-.06v-5.34h-3.63v-4.6h3.63v-7.88h10.38v7.88h3.46v4.6h-3.46v4.82l3.46-.29ZM255.01,263.89v-4.6l12.2.58v4.6l-12.2-.58ZM267.21,268.21v4.6l-12.2-.57v-4.6l12.2.58ZM186.58,282.57v7.76h-13.56c1.74-5.48,3.25-10.76,4.54-15.82h-5.11c2-6.48,3.52-12.9,4.54-19.27h8.45c-.45,3.72-1.27,8.73-2.44,12.68h4.48c-1.02,5.33-2.33,9.43-3.91,14.64h3.01ZM186.58,294.36v6.9h-13.56v-6.9h13.56ZM166.78,255.25v4.6h-51.07v-4.6h51.07ZM119.93,98.88l15.62-36.98h50.62l-18.67,50.7,5.33,21.62-31.6,89.05h-5.82l-2.97-15.4-11.8,32.08h-60.27l59.56-141.07ZM115.71,272.53v-4.6h51.07v4.6h-34.61c-1.48,9.93-2.8,17.19-3.97,24.13h26.27l-4.43-20.71h11.35l5.39,25.31h-51.07c.98-4.22,1.86-8.67,2.64-13.37.78-4.7,1.6-9.03,2.47-15.36h-5.11ZM152.46,318.64v9.16h-4.28v-9.16l-6.64-9.14h4.28l4.52,6.22,4.49-6.22h4.28l-6.64,9.14ZM177.96,323.64c0,.74-.19,1.43-.57,2.07-.38.64-.89,1.15-1.53,1.53-.64.38-1.33.57-2.07.57h-9.22c-.76,0-1.46-.19-2.1-.56-.64-.37-1.14-.88-1.51-1.53-.37-.65-.56-1.34-.56-2.08v-14.1h4.28v13.28c0,.58.21,1.08.62,1.5.42.42.92.62,1.53.62h4.7c.6,0,1.11-.21,1.53-.62s.62-.92.62-1.5v-13.28h4.28v14.1ZM197.66,327.81h-4.25l-9.03-12.43v12.43h-4.25v-18.27h4.25l9.03,12.43v-12.43h4.25v18.27ZM199.12,301.26l-.85-25.19c-.72,7.09-1.66,15.49-2.84,25.19h-8.51c2.03-14.57,3.71-29.89,4.77-46.01h8.51l-.72,12.5h4.48l1.01,33.51h-5.84ZM205.53,301.26c2-14.57,3.66-29.89,4.77-46.01h8.51l-.74,12.5h4.65l1.37,33.51h-5.79l-1.19-27.49c-.79,7.71-1.84,16.87-3.12,27.49h-8.45ZM233.31,321.46c0,1.15-.28,2.21-.85,3.19-.57.97-1.34,1.74-2.31,2.31-.97.57-2.04.85-3.19.85h-11.18v-18.27h11.18c1.15,0,2.21.28,3.19.85.97.57,1.74,1.34,2.31,2.31.57.97.85,2.04.85,3.19v5.58ZM253.49,327.81h-4.25l-2.76-6.4h-6.72v6.4h-4.28v-18.27h12.06c1.08,0,2.08.27,2.99.8.91.53,1.63,1.25,2.16,2.15.53.9.8,1.89.8,2.97s-.27,2.13-.82,3.05c-.55.92-1.29,1.64-2.23,2.15l3.05,7.14ZM253.62,272.94h-3.23l-.02,3.4h3.23v4.6h-3.23v20.33h-9.48l.02-28.32h-1.65l-.02,24.01h-7.77l.02-24.01h-1.13v-5.19h10.55l-.02-7.61h-10.55v-4.6c11.73,0,19.48-.1,23.26-.29v4.6l-3.23.12.02,7.78h3.23v5.19ZM254.16,278.31h14.92v-23.06h10.21v23.06h2.1v4.6h-2.1v18.35h-10.21v-18.35h-14.92v-4.6ZM272.75,323.64c0,.74-.19,1.44-.56,2.08-.37.65-.88,1.16-1.51,1.53-.64.37-1.34.56-2.1.56h-9.22c-.74,0-1.43-.19-2.07-.57-.64-.38-1.14-.89-1.51-1.53-.37-.64-.56-1.33-.56-2.07v-9.96c0-.74.19-1.43.56-2.07.37-.64.88-1.14,1.51-1.51.64-.37,1.33-.56,2.07-.56h9.22c.76,0,1.46.19,2.1.56.64.37,1.14.88,1.51,1.51.37.64.56,1.33.56,2.07v9.96ZM292.46,327.81h-4.25l-9.03-12.43v12.43h-4.25v-18.27h4.25l9.03,12.43v-12.43h4.25v18.27ZM312.17,312.38h-9.88c-.6,0-1.16.15-1.69.45-.52.3-.94.71-1.25,1.24-.31.52-.46,1.09-.46,1.71v1.46h13.28v2.84h-13.28v1.46c0,.62.15,1.19.46,1.71.31.52.73.93,1.25,1.24.52.3,1.08.45,1.69.45h9.88v2.87h-11.29c-1.13,0-2.18-.28-3.13-.85-.96-.57-1.71-1.33-2.27-2.28-.56-.96-.84-2-.84-3.13v-5.76c0-1.13.28-2.18.84-3.13.56-.96,1.31-1.71,2.27-2.27.96-.56,2-.84,3.13-.84h11.29v2.84ZM327.07,301.26l-3.97-5.64-3.91,5.64h-11.8c4.35-6.29,7.58-11.04,9.7-14.26-4.12-6.1-7.62-8.75-10.5-13.85h10.84c1.63,2.61,3.38,4.14,5.28,6.93,1.93-3.11,3.71-4.92,5.33-7.8h-21.45v-4.6h10.89v-5.82h-10.89v-4.6h10.89v-2.01h10.61v2.01h10.61v4.6h-10.61v5.82h10.61v5.75c-2.57,4.98-5.86,7.62-9.87,13.8l4.54,6.33,5.5,7.71h-11.8ZM333.93,239.95l-11.81-32.08-2.96,15.4h-5.82l-31.6-89.07,5.32-21.59-18.66-50.71h50.63l15.62,36.98,59.57,141.08h-60.28Z"/>
      <path class="cls-1" d="M246.14,312.38h-6.37v6.19h6.37c.85,0,1.58-.3,2.19-.9.61-.6.92-1.34.92-2.2s-.31-1.58-.92-2.18c-.61-.6-1.34-.9-2.19-.9Z"/>
    </g>
  </g>
</svg>