<?xml version="1.0" encoding="UTF-8"?>
<svg id="Layer_2" data-name="Layer 2" xmlns="http://www.w3.org/2000/svg" viewBox="0 0 576.35 148.7">
  <defs>
    <style>
      .cls-1 {
        fill: #275695;
      }
    </style>
  </defs>
  <g id="_图层_1" data-name="图层 1">
    <path class="cls-1" d="M84.01,0C37.61,0,0,32.03,0,74.89s37.61,73.8,84.01,73.8,84.01-30.94,84.01-73.8S130.41,0,84.01,0ZM50.05,94.63l-1.1-5.69-4.36,11.86h-22.28l22.01-52.14,5.77-13.67h18.71l-6.9,18.74,1.97,7.99-11.68,32.92h-2.15ZM94.26,100.8l-10.12-34.08-10.1,34.08h-19.54l2.12-6.17h0l11.07-32.2h0s9.44-27.45,9.44-27.45h13.82l.06.18,9.13,26.55,11.33,32.92,2.12,6.17h-19.33ZM123.43,100.8l-4.36-11.86-1.09,5.69h-2.15l-11.68-32.92,1.97-7.98-6.9-18.74h18.71l5.77,13.67,22.02,52.15h-22.28Z"/>
    <g>
      <g>
        <path class="cls-1" d="M196.8,15.65h86.85v7.83h-86.85v-7.83ZM196.8,93.9c1.67-7.17,3.17-14.75,4.49-22.74,1.32-7.99,2.72-15.36,4.2-26.12h-8.69v-7.83h86.85v7.83h-58.87c-2.51,16.89-4.76,29.24-6.75,41.04h44.68l-7.53-35.22h19.3l9.17,43.04h-86.85Z"/>
        <path class="cls-1" d="M294.26,75.32c2.96-9.33,5.53-18.29,7.72-26.9h-8.69c3.41-11.02,5.98-21.94,7.72-32.77h14.38c-.77,6.33-2.16,14.85-4.15,21.56h7.62c-1.74,9.07-3.96,16.03-6.66,24.9h5.11v13.21h-23.06ZM294.26,82.17h23.06v11.74h-23.06v-11.74ZM317.91,93.9c3.46-24.78,6.3-50.83,8.11-78.26h14.48l-1.23,21.26h7.62l1.71,57h-9.94l-1.45-42.84c-1.22,12.07-2.83,26.35-4.83,42.84h-14.48ZM349.56,93.9c3.4-24.78,6.23-50.83,8.11-78.26h14.48l-1.26,21.26h7.91l2.32,57h-9.84l-2.03-46.76c-1.35,13.11-3.12,28.69-5.31,46.76h-14.38Z"/>
        <path class="cls-1" d="M409.73,45.73h-2.8l-.04,40.84h-13.22l.04-40.84h-1.93v-8.83h17.95l-.04-12.94h-17.95v-7.83c19.94,0,33.13-.16,39.57-.49v7.83l-5.5.2.04,13.23h5.5v8.83h-5.5l-.04,5.77h5.5v7.83h-5.5v34.57h-16.12l.04-48.17ZM457.65,62.69h-25.38v-7.83h25.38V15.65h17.37v39.22h3.57v7.83h-3.57v31.22h-17.37v-31.22ZM433.71,30.34v-7.83l20.75.98v7.83l-20.75-.98ZM433.71,44.53v-7.83l20.75.98v7.82l-20.75-.98Z"/>
        <path class="cls-1" d="M489.21,86.08h6.18v-32.29l-6.18.1v-7.82l6.18-.1v-9.09h-6.18v-7.83h6.18v-13.4h17.66v13.4h5.89v7.83h-5.89v8.21l5.89-.49v7.82l-5.89.49v41h-23.84v-7.83ZM522.79,93.9c7.4-10.69,12.9-18.78,16.5-24.26-7.01-10.37-12.96-14.89-17.85-23.56h18.43c2.77,4.43,5.76,7.03,8.97,11.79,3.28-5.28,6.3-8.37,9.07-13.26h-36.48v-7.83h18.53v-9.89h-18.53v-7.83h18.53v-3.42h18.05v3.42h18.05v7.83h-18.05v9.89h18.05v9.78c-4.38,8.48-9.97,12.97-16.79,23.47l7.72,10.76,9.36,13.11h-20.07l-6.76-9.59-6.66,9.59h-20.07Z"/>
      </g>
      <g>
        <path class="cls-1" d="M270.59,107.92l-11.29,15.54v15.58h-7.27v-15.58l-11.29-15.54h7.27l7.68,10.57,7.63-10.57h7.27Z"/>
        <path class="cls-1" d="M280.08,107.97v22.59c0,.99.35,1.85,1.06,2.55.71.71,1.57,1.06,2.6,1.06h8c1.02,0,1.89-.35,2.6-1.06s1.06-1.56,1.06-2.55v-22.59h7.27v23.99c0,1.26-.32,2.44-.97,3.52-.65,1.08-1.51,1.95-2.6,2.6-1.08.65-2.26.97-3.52.97h-15.68c-1.29,0-2.48-.32-3.57-.95-1.08-.63-1.94-1.5-2.58-2.6-.63-1.1-.95-2.28-.95-3.55v-23.99h7.27Z"/>
        <path class="cls-1" d="M328.95,107.97h7.23v31.08h-7.23l-15.36-21.14v21.14h-7.23v-31.08h7.23l15.36,21.14v-21.14Z"/>
        <path class="cls-1" d="M386.01,107.97c1.96,0,3.76.48,5.42,1.45,1.66.96,2.97,2.27,3.93,3.93.96,1.66,1.45,3.46,1.45,5.42v9.49c0,1.96-.48,3.77-1.45,5.42-.96,1.66-2.27,2.97-3.93,3.93-1.66.96-3.46,1.45-5.42,1.45h-19.02v-31.08h19.02ZM386.57,133.38c.92-.53,1.64-1.25,2.17-2.17.53-.92.79-1.9.79-2.96v-9.49c0-1.08-.26-2.08-.79-3-.53-.92-1.25-1.64-2.17-2.17-.92-.53-1.9-.79-2.96-.79h-9.4v21.37h9.4c1.05,0,2.04-.26,2.96-.79Z"/>
        <path class="cls-1" d="M429.74,123.24c-.93,1.57-2.2,2.79-3.79,3.66l5.2,12.15h-7.23l-4.7-10.89h-11.43v10.89h-7.27v-31.08h20.51c1.84,0,3.53.45,5.08,1.36,1.55.9,2.78,2.12,3.68,3.66.9,1.54,1.36,3.22,1.36,5.06s-.47,3.63-1.4,5.19ZM407.78,123.33h10.84c1.45,0,2.69-.51,3.73-1.54,1.04-1.02,1.56-2.27,1.56-3.75s-.52-2.68-1.56-3.7c-1.04-1.02-2.28-1.54-3.73-1.54h-10.84v10.53Z"/>
        <path class="cls-1" d="M435.02,111.49c.63-1.08,1.49-1.94,2.58-2.58,1.08-.63,2.26-.95,3.52-.95h15.68c1.29,0,2.48.32,3.57.95,1.08.63,1.94,1.49,2.58,2.58.63,1.08.95,2.26.95,3.52v16.94c0,1.26-.32,2.45-.95,3.55-.63,1.1-1.49,1.97-2.58,2.6-1.08.63-2.27.95-3.57.95h-15.68c-1.27,0-2.44-.32-3.52-.97-1.08-.65-1.94-1.51-2.58-2.6-.63-1.08-.95-2.26-.95-3.52v-16.94c0-1.27.32-2.44.95-3.52ZM455.55,133.11c.71-.71,1.06-1.56,1.06-2.55v-14.09c0-1.02-.35-1.89-1.06-2.6-.71-.71-1.56-1.06-2.55-1.06h-8.04c-1.02,0-1.89.35-2.6,1.06s-1.06,1.57-1.06,2.6v14.09c0,.99.35,1.85,1.06,2.55.71.71,1.57,1.06,2.6,1.06h8.04c.99,0,1.84-.35,2.55-1.06Z"/>
        <path class="cls-1" d="M490.18,107.97h7.23v31.08h-7.23l-15.36-21.14v21.14h-7.23v-31.08h7.23l15.36,21.14v-21.14Z"/>
        <path class="cls-1" d="M511.25,113.57c-.89.51-1.6,1.21-2.12,2.1-.53.89-.79,1.86-.79,2.91v2.48h22.59v4.83h-22.59v2.48c0,1.05.26,2.03.79,2.91.53.89,1.23,1.59,2.12,2.1.89.51,1.84.77,2.87.77h16.81v4.88h-19.2c-1.93,0-3.7-.48-5.33-1.45-1.63-.96-2.91-2.26-3.86-3.88-.95-1.63-1.42-3.4-1.42-5.33v-9.8c0-1.93.47-3.7,1.42-5.33.95-1.63,2.24-2.91,3.86-3.86,1.63-.95,3.4-1.42,5.33-1.42h19.2v4.83h-16.81c-1.02,0-1.98.26-2.87.77Z"/>
      </g>
    </g>
  </g>
</svg>